<svg xmlns="http://www.w3.org/2000/svg" viewBox="0 0 253 343" fill="none" fill-rule="evenodd" xmlns:v="https://vecta.io/nano"><path d="M27.796 66.45c-38.49-10.832-9.869-59.84 21.04-39.682L27.795 66.45zM198.948 22.826c30.466-21.418 57.997 26.904 22.59 39.062l-22.59-39.062z" fill="#6ad7e5"/><g fill="#000"><path d="M29.706 52.846c-5.078-2.688-8.803-6.34-5.697-12.218 2.876-5.442 8.218-4.851 13.297-2.163l-7.6 14.381zm184.102-5.442c5.078-2.689 8.804-6.34 5.697-12.218-2.875-5.442-8.218-4.851-13.296-2.163l7.6 14.38z"/><path d="M233.644 30.512c6.753 11.775 2.525 24.765-12.594 29.957l1.786.668-22.59-39.062-.435 1.978c13.044-9.17 27.041-5.382 33.833 6.46zm-36.682-8.124.688 1.189 22.589 39.061.618 1.07 1.168-.402c16.964-5.825 21.881-20.931 14.221-34.286-7.64-13.321-23.617-17.645-38.16-7.421l-1.124.79zM13.6 35.72c6.724-12.007 21.161-16.34 34.416-7.696l-.506-1.959L26.47 65.748l1.732-.741C11.774 60.383 6.876 47.73 13.6 35.72zm14.955 32.502.567-1.069L50.16 27.47l.642-1.21-1.148-.749c-14.77-9.632-31.132-4.722-38.671 8.744-7.656 13.673-1.924 28.48 16.407 33.64l1.165.327z"/></g><path d="M4.361 185.706c.488 10.063 10.532 5.407 15.082 2.261 4.318-2.986 5.58-.504 5.96-6.398.248-3.874.694-7.748.475-11.638-6.53-.592-13.633.964-18.987 4.857-2.758 2.005-7.928 8.406-2.53 10.918" fill="#f6d2a2"/><path d="M4.723 185.67c1.462-.545 3.01-.932 4.003-2.255" stroke="#000" stroke-width="3" fill="#c6b198"/><path d="M10.521 193.283c3.035-.289 6.69-1.949 9.775-4.082a10.911 10.911 0 0 1 2.74-1.395l.746-.264c2.194-.808 2.874-2.088 3.118-5.877l.19-2.646c.344-4.545.431-6.586.285-9.172l-.073-1.293-1.289-.117c-7.16-.65-14.54 1.165-20.004 5.138-1.826 1.327-3.836 3.677-4.812 5.873-1.419 3.19-.735 6.098 2.531 7.618l1.266-2.72c-1.608-.748-1.868-1.854-1.056-3.68.75-1.685 2.415-3.632 3.835-4.665 4.85-3.526 11.505-5.162 17.97-4.576l-1.363-1.41c.136 2.412.053 4.364-.282 8.778l-.192 2.68c-.176 2.728-.284 2.931-1.161 3.254-.126.047-.651.23-.716.253a13.902 13.902 0 0 0-3.44 1.754c-2.7 1.868-5.924 3.332-8.353 3.563-2.768.264-4.197-.965-4.377-4.663l-2.996.145c.262 5.413 3.19 7.93 7.658 7.504z" fill="#000"/><path d="M4.723 185.67c1.462-.545 3.01-.932 4.003-2.255" stroke="#000" stroke-width="3" fill="#c6b198"/><path d="M205.877 309.499c7.739 4.792 21.884 19.283 10.275 26.31-11.154 10.22-17.397-11.22-27.187-14.191 4.216-5.73 9.56-10.956 16.912-12.119z" fill="#f6d2a2"/><g fill="#000"><path d="M216.983 322.586c3.137 5.242 2.83 9.253-1.608 11.939l-.127.077-.11.1c-4.643 4.256-7.814 2.871-13.967-4.278a206.458 206.458 0 0 1-1.265-1.48c-4.696-5.516-7.099-7.727-10.506-8.761l.773 2.324c4.92-6.687 9.905-10.572 15.939-11.526l-1.025-.207c4.306 2.666 9.275 7.434 11.896 11.812zm-10.79-14.656-.55.087c-6.964 1.102-12.544 5.45-17.887 12.712l-1.257 1.708 2.03.616c2.633.8 4.8 2.795 9.093 7.835a1182.14 1182.14 0 0 0 1.275 1.494c3.305 3.84 5.444 5.819 7.975 6.924 3.413 1.491 6.844.769 10.293-2.392l-.236.177c6.074-3.676 6.523-9.538 2.628-16.046-2.883-4.817-8.199-9.916-12.89-12.821l-.474-.294z"/><path d="M215.925 332.121l-.064-.174c-1.411-3.794-2.258-5.456-4.075-7.202l-2.078 2.163c1.383 1.33 2.084 2.706 3.341 6.085l.065.174 1.464 3.516 2.681-1.347c-.427-.849-.746-1.635-1.334-3.215z"/></g><path d="M66.935 325.784c-9.083 1.407-14.196 9.608-21.768 13.773-7.135 4.258-9.864-1.363-10.507-2.504-1.119-.51-1.025.475-2.75-1.265-6.615-10.448 6.891-18.085 13.924-23.275 9.796-1.982 15.935 6.517 21.1 13.271z" fill="#f6d2a2"/><path d="M52.162 332.472l-.196.167c-3.59 3.07-5.284 4.373-7.521 5.604-3.548 2.116-5.718 1.7-7.364-.225a7.512 7.512 0 0 1-.682-.946 11.203 11.203 0 0 1-.241-.41l-.191-.346-.24-.425-.444-.203a3.07 3.07 0 0 0-1.537-.301c-.123-.051-.38-.261-.772-.655l.203.254c-3.667-5.791-.834-10.73 7.65-17.04 1.188-.883 5.212-3.72 5.898-4.227l-.593.264c6.396-1.294 11.136 1.857 17.343 9.763l1.147 1.482 1.121 1.467.962-2.393c-5.053.782-8.286 2.822-14.543 8.17zm17.499-5.592l-1.535-2.007-1.123-1.47-1.169-1.51c-6.843-8.716-12.443-12.44-20.297-10.85l-.326.065-.267.198-5.908 4.233c-4.21 3.132-7.016 5.835-8.736 8.833-2.268 3.954-2.288 8.065.342 12.219l.087.138.115.116c1.15 1.158 1.903 1.56 2.888 1.543.243-.007.217-.011.305.03l.623-1.365-1.307.736.188.34.304.518a10.45 10.45 0 0 0 .956 1.32c2.574 3.012 6.348 3.735 11.135.878 2.43-1.336 4.235-2.724 7.98-5.925l.195-.168c5.846-4.997 8.73-6.816 13.053-7.486l2.497-.386z" fill="#000"/><path d="M34.673 337.656c.346-3.982 3.501-6.649 5.004-10.015" stroke="#000" stroke-width="3"/><path d="M248.659 184.8c-.488 10.062-10.532 5.406-15.081 2.26-4.319-2.986-5.581-.504-5.96-6.398-.249-3.874-.695-7.748-.475-11.638 6.53-.592 13.632.964 18.986 4.857 2.757 2.005 7.928 8.406 2.53 10.918" fill="#f6d2a2"/><path d="M242.784 189.39c-2.428-.232-5.652-1.695-8.353-3.563a13.902 13.902 0 0 0-3.44-1.754l-.716-.253c-.877-.323-.985-.526-1.16-3.254l-.193-2.68-.282-8.777-1.362 1.409c6.464-.586 13.12 1.05 17.969 4.576 1.42 1.033 3.085 2.98 3.835 4.666.812 1.825.552 2.931-1.056 3.68l1.266 2.72c3.267-1.52 3.95-4.429 2.53-7.62-.975-2.195-2.985-4.545-4.81-5.872-5.464-3.973-12.845-5.787-20.005-5.138l-1.29.117-.072 1.293c-.146 2.586-.06 4.627.285 9.172l.19 2.646c.244 3.79.925 5.07 3.118 5.877.156.058.703.248.746.264a10.91 10.91 0 0 1 2.74 1.395c3.085 2.133 6.74 3.793 9.775 4.082 4.468.426 7.396-2.09 7.658-7.504l-2.996-.145c-.18 3.698-1.609 4.927-4.377 4.663z" fill="#000"/><path d="M248.33 184.762c-1.46-.544-3.01-.93-4.002-2.254" stroke="#000" stroke-width="3" fill="#c6b198"/><path d="M122.791 2c38.533 0 74.655 5.515 93.486 42.568 16.901 41.531 10.89 86.316 13.469 130.208 2.213 37.69 7.121 81.231-10.348 116.157-18.378 36.744-64.3 45.988-102.133 44.634-29.718-1.064-65.617-10.768-82.39-37.943-19.677-31.88-10.36-79.284-8.932-114.757 1.693-42.02-11.372-84.168 2.42-125.285C42.674 14.928 81.262 5.288 122.792 2z" fill="#6ad7e5"/><path d="M130.039 53.836c6.918 40.252 72.656 29.61 63.214-10.986-8.467-36.404-65.514-26.328-63.214 10.986" fill="#fff"/><path d="M168.021 80.095c19.007-3.188 31.168-18.14 26.648-37.575-8.87-38.136-68.491-27.694-66.082 11.406l2.903-.179c-2.195-35.612 52.302-45.157 60.346-10.568 4.11 17.666-6.832 31.119-24.296 34.048-17.444 2.926-33.049-6.07-36.068-23.637l-2.867.493c3.314 19.278 20.5 29.185 39.416 26.012z" fill="#000"/><path d="M50.84 60.567c8.967 35.043 65.023 26.071 62.91-9.08-2.531-42.1-71.483-33.976-62.91 9.08" fill="#fff"/><path d="M115.158 51.402c-1.21-20.115-17.792-31.24-37.21-28.707-19.543 2.55-32.565 17.687-28.492 38.148l2.768-.551c-3.731-18.738 8.063-32.448 26.09-34.8 17.91-2.336 32.925 7.738 34.028 26.08 2.024 33.669-51.648 41.813-60.135 8.646l-2.734.699c9.332 36.47 67.915 27.58 65.685-9.515z" fill="#000"/><path d="M137.823 102.897c.03 5.233 1.188 11.108.2 16.675-1.335 2.525-3.954 2.792-6.211 3.813a9.14 9.14 0 0 1-6.998-5.464c-.801-6.354.299-12.507.501-18.864l12.508 3.84z" fill="#fff"/><g fill="#000"><path d="M136.626 108.61l.293 5.5c.02 1.933-.094 3.625-.374 5.2l.151-.439c-.606 1.146-1.393 1.624-3.651 2.43l-.216.076-1.635.64.85-.114c-2.609-.41-4.802-2.123-5.851-4.573l.11.403c-.34-2.694-.353-5.439-.122-9.089l.25-3.403.383-6.136-1.94 1.386 12.509 3.84-1.06-1.426.303 5.705zm2.69-6.824l-1.053-.323-12.508-3.84-1.877-.576-.062 1.962-.376 5.998a215.91 215.91 0 0 0-.253 3.447c-.242 3.823-.229 6.74.139 9.654l.026.21.083.193c1.455 3.397 4.513 5.785 8.144 6.355l.443.07.408-.185a18.02 18.02 0 0 1 1.409-.549l.212-.076c2.926-1.042 4.23-1.835 5.297-3.853l.11-.207.041-.231c.316-1.777.441-3.65.42-5.757-.017-1.613-.096-2.957-.302-5.693-.218-2.909-.286-4.048-.294-5.497l-.006-1.102z"/><ellipse cx="66.238" cy="55.113" rx="9.466" ry="10.262"/></g><ellipse fill="#fff" cx="70.543" cy="57.429" rx="2.232" ry="2.608"/><ellipse fill="#000" cx="145.356" cy="52.392" rx="9.308" ry="10.262"/><g fill="#fff"><ellipse cx="149.59" cy="54.708" rx="2.195" ry="2.608"/><path d="M110.354 101.74c-4.13 10.017 2.304 30.05 13.51 15.274-.802-6.355.298-12.507.5-18.864l-14.01 3.59z"/></g><path d="M110.052 119.412c3.452 6.111 9.332 5.991 15.007-1.492l.37-.487-.077-.607c-.34-2.694-.353-5.439-.121-9.089l.25-3.403.383-6.136.063-1.997-1.935.496-14.01 3.59-.728.186-.286.695c-2.202 5.34-1.686 13.34 1.084 18.244zm.675-16.22l14.01-3.589-1.872-1.5c-.053 1.67-.143 3.026-.375 5.997a215.91 215.91 0 0 0-.253 3.447c-.243 3.822-.229 6.74.138 9.654l.293-1.094c-4.449 5.866-7.686 5.933-10.004 1.83s-2.773-11.14-.923-15.626l-1.014.881z" fill="#000"/><path d="M111.785 82.868c-7.697.656-13.99 9.817-9.987 17.064 5.3 9.598 17.13-.85 24.499.13 8.48.173 15.428 8.974 22.24 1.59 7.574-8.212-3.262-16.21-11.731-19.786l-25.02 1.002z" fill="#f6d2a2"/><path d="M100.485 100.657c1.72 3.115 4.219 4.664 7.391 4.844 2.353.134 4.72-.4 8.459-1.668l1.188-.408c4.81-1.665 6.685-2.128 8.576-1.877l.167.013c2.234.046 4.179.636 7.8 2.151 4.144 1.734 5.481 2.196 7.6 2.356 2.98.226 5.597-.823 7.973-3.399 4.02-4.358 3.817-9.158.213-13.594-2.738-3.371-7.398-6.453-12.463-8.591l-.309-.13-.334.013-25.02 1.002c-9.12.776-15.652 11.3-11.241 19.288zm36.38-17.292l-.643-.117c4.65 1.963 8.92 4.786 11.301 7.718 2.717 3.346 2.85 6.482-.09 9.67-3.112 3.373-5.278 3.209-12.209.309-3.955-1.655-6.17-2.328-8.897-2.383l.167.012c-2.554-.339-4.63.174-9.952 2.016l-1.17.402c-6.961 2.36-10.07 2.183-12.26-1.785-3.31-5.99 1.817-14.249 8.8-14.845l24.954-.997z" fill="#231f20"/><path d="M110.816 82.466c-.57-13.346 24.856-15.015 27.859-3.843 2.995 11.146-26.607 13.735-27.859 3.843-.999-7.898 0 0 0 0zm65.584-71.67c17.09 6.34 29.849 17.351 38.54 34.452 5.598 13.77 8.962 28.673 10.709 45.876 1.328 13.076 1.637 23.671 1.765 47.645l.047 7.604c.09 11.805.299 20.178.787 28.491l.777 12.345c1.074 16.65 1.498 25.278 1.57 35.23.203 27.863-3.338 49.43-12.538 67.823-8.409 16.812-23.156 28.665-42.942 35.865-16.903 6.151-36.995 8.685-57.797 7.941-35.748-1.28-66.663-13.732-81.166-37.231-9.671-15.669-12.907-35.645-12.014-63.17.245-7.544.692-14.304 1.662-26.556l1.642-24.184c.18-4.476.201-9.108.078-14.015-.216-8.6-.696-15.507-1.993-30.871-1.712-20.295-2.236-29.213-2.024-40.343.279-14.642 2.202-27.474 6.283-39.64C36.391 38.37 48.482 24.98 66.03 16.377 80.717 9.174 98.595 5.42 122.91 3.496c22.593.004 39.226 2.007 53.49 7.3zM64.71 13.682c-18.253 8.95-30.902 22.958-37.767 43.422-4.186 12.48-6.154 25.609-6.438 40.537-.215 11.268.313 20.254 2.034 40.652 1.291 15.306 1.768 22.174 1.983 30.695.122 4.843.101 9.41-.076 13.819-.25 6.188-.537 10.208-1.635 24.067-.975 12.296-1.424 19.092-1.67 26.696-.911 28.061 2.41 48.561 12.46 64.842 15.133 24.52 46.963 37.341 83.611 38.654 21.162.757 41.63-1.824 58.93-8.12 20.463-7.446 35.82-19.79 44.599-37.342 9.448-18.89 13.06-40.892 12.855-69.186-.073-10.027-.498-18.697-1.577-35.403l-.775-12.327c-.485-8.252-.692-16.58-.782-28.339l-.047-7.596c-.129-24.07-.44-34.729-1.78-47.932-1.775-17.47-5.2-32.646-10.968-46.818-9.092-17.903-22.44-29.423-40.222-36.02C162.777 2.541 145.83.5 122.791.5 98.015 2.457 79.804 6.28 64.71 13.682z" fill="#000"/></svg>