<svg version="1" xmlns="http://www.w3.org/2000/svg" width="533.333" height="533.333" viewBox="0 0 400.000000 400.000000"><path d="M18 .9C10.3 3.3 4.4 8.8 1.6 16.1.1 20.1 0 35.4.2 201.5l.3 181 2.2 4c2.5 4.7 6.4 8.5 11.3 11.1 3.4 1.8 9.9 1.9 186 1.9h182.5l4-2.2c4.7-2.5 8.5-6.4 11.1-11.3 1.8-3.4 1.9-9.9 1.9-186V17.5l-2.2-4c-2.8-5.2-6.8-8.9-12.3-11.4-4.5-2-5.5-2.1-184.5-2-99 0-181.1.4-182.5.8zM181.5 46c21.9 2.1 32.6 6.3 42.8 16.9 13.7 14.1 19.3 34.2 15.4 55-4.5 23.4-20.2 38.9-46.1 45.3-7.3 1.8-8.6 2.4-7.1 3.3 1 .5 5.3 3.6 9.7 6.8 12.8 9.5 19.5 18.4 46.2 61.1 7.5 12.1 14.1 22.7 14.7 23.8.9 1.7-.1 1.8-25.5 1.8H205l-23.9-35.8c-13.2-19.7-26.3-38.4-29.2-41.6-9.1-9.9-16.3-12.6-34.6-12.6H108v90H65V45h52.8c29 0 57.7.5 63.7 1zM334 215c0 81.6-.4 92.3-4.1 106-8.7 32.1-37.3 49.9-76.9 47.7-19.9-1.1-33.2-6.2-44.9-17.2-11.8-11.2-18.5-27.3-19.8-47.6l-.6-9.6 15.4-1.7c8.5-1 18.1-2.1 21.4-2.6 3.3-.4 6.1-.7 6.2-.6.1.1.6 3.9 1.2 8.4 1.5 11.5 2.6 15.2 6.4 20.8 4.8 7.1 11.6 10.4 21.7 10.4 15.5 0 21.9-4.7 25.9-19 1.3-4.7 1.5-18.2 1.8-89.8l.4-84.2H334v79z"/><path d="M109 108v27h25.3c40.9 0 49.4-1.7 56.4-10.8 8.6-11.2 5.9-30.5-5.2-38.1-6.5-4.4-12.6-5.1-45.7-5.1H109v27z"/></svg>