<?xml version="1.0" standalone="no"?>
<!DOCTYPE svg PUBLIC "-//W3C//DTD SVG 20010904//EN"
 "http://www.w3.org/TR/2001/REC-SVG-20010904/DTD/svg10.dtd">
<svg version="1.0" xmlns="http://www.w3.org/2000/svg"
 width="808.000000pt" height="808.000000pt" viewBox="0 0 808.000000 808.000000"
 preserveAspectRatio="xMidYMid meet">
<metadata>
Created by potrace 1.14, written by Peter Selinger 2001-2017
</metadata>
<g transform="translate(0.000000,808.000000) scale(0.100000,-0.100000)"
fill="#000000" stroke="none">
<path d="M1476 7172 c-3 -3 -6 -18 -6 -33 0 -15 -5 -31 -10 -34 -6 -4 -8 -10
-5 -15 3 -5 1 -20 -5 -35 -5 -14 -12 -39 -15 -54 -3 -15 -21 -95 -41 -177 -20
-82 -37 -158 -38 -169 -2 -11 -6 -30 -10 -42 -7 -20 -10 -35 -21 -85 -2 -13
-9 -44 -15 -69 -6 -26 -12 -53 -13 -60 -2 -8 -6 -20 -10 -26 -5 -7 -6 -13 -3
-13 2 0 0 -15 -5 -32 -5 -18 -12 -49 -15 -68 -3 -19 -10 -42 -15 -51 -4 -9 -6
-19 -3 -22 3 -3 2 -12 -2 -19 -4 -7 -9 -19 -11 -28 -1 -8 -4 -27 -7 -42 -2
-14 -7 -35 -10 -46 -4 -11 -9 -30 -11 -42 -2 -13 -14 -60 -25 -105 -11 -45
-22 -91 -24 -102 -2 -11 -11 -48 -19 -84 -9 -35 -19 -80 -23 -99 -4 -19 -9
-39 -10 -45 -9 -33 -94 -399 -98 -418 -2 -12 -9 -42 -16 -67 -7 -25 -14 -54
-16 -65 -2 -11 -11 -49 -20 -85 -9 -36 -18 -76 -21 -90 -5 -26 -6 -29 -16 -70
-4 -14 -16 -63 -26 -110 -11 -47 -37 -155 -57 -240 -20 -85 -38 -164 -40 -175
-2 -11 -11 -47 -19 -80 -9 -33 -17 -69 -19 -80 -2 -11 -13 -59 -24 -107 -12
-48 -24 -98 -26 -110 -2 -13 -16 -72 -30 -131 -15 -59 -28 -118 -30 -130 -3
-12 -5 -22 -6 -22 -1 0 -3 -8 -5 -19 -3 -16 -10 -46 -30 -131 -3 -11 -13 -56
-24 -100 -10 -44 -35 -150 -56 -235 -20 -85 -38 -164 -41 -175 -12 -62 -37
-172 -42 -185 -6 -17 -6 -17 -21 -92 -7 -32 -13 -61 -13 -65 0 -5 -4 -18 -9
-31 -9 -22 -12 -38 -24 -97 -3 -16 -8 -38 -11 -47 -3 -10 -7 -30 -10 -45 -3
-16 -10 -46 -16 -68 -5 -22 -12 -47 -13 -55 -2 -8 -15 -64 -29 -125 -14 -60
-42 -177 -61 -260 -19 -82 -50 -217 -70 -300 -19 -82 -37 -159 -40 -170 -3
-18 -66 -284 -100 -425 -8 -30 -11 -57 -8 -60 8 -8 983 -5 1158 3 232 12 403
23 495 32 25 3 74 7 110 10 36 3 79 7 95 9 17 2 59 7 95 10 36 4 72 9 80 11 8
2 40 6 70 10 58 6 96 11 145 22 16 3 44 7 61 9 18 1 61 8 96 15 34 6 72 13 83
15 11 1 43 8 70 13 89 20 95 21 118 25 31 7 50 11 157 37 52 13 98 23 102 23
3 1 10 4 14 8 4 5 15 8 25 8 27 0 418 132 534 180 55 22 105 42 110 44 6 1 20
7 32 14 12 7 29 12 37 12 9 0 16 4 16 9 0 5 12 12 28 15 32 8 480 228 567 278
33 20 80 47 105 60 86 48 116 65 235 138 66 41 198 124 293 186 156 103 202
124 202 93 0 -7 76 -126 90 -139 7 -7 84 -123 90 -135 3 -6 17 -27 33 -46 15
-20 27 -41 27 -47 0 -6 4 -12 8 -14 5 -2 46 -59 92 -128 46 -69 86 -127 89
-130 3 -3 12 -17 20 -32 8 -16 18 -28 23 -28 4 0 8 -7 8 -15 0 -8 5 -15 10
-15 6 0 10 -4 10 -10 0 -5 45 -75 100 -155 55 -81 100 -151 100 -156 0 -5 5
-9 10 -9 6 0 10 -6 10 -14 0 -8 4 -16 8 -18 5 -2 37 -46 72 -98 35 -52 64 -96
65 -97 1 -2 1748 -5 2013 -3 47 0 51 7 22 38 -11 12 -20 24 -20 28 0 3 -13 23
-30 44 -16 21 -30 42 -30 48 0 6 -4 12 -8 14 -9 3 -130 176 -147 209 -5 10
-13 19 -17 19 -5 0 -8 6 -8 14 0 8 -3 16 -7 18 -5 2 -22 23 -39 48 -119 173
-148 216 -154 220 -4 3 -9 12 -13 20 -4 8 -41 65 -83 125 -43 61 -111 160
-152 220 -41 61 -82 118 -90 128 -8 9 -20 25 -26 36 -19 32 -69 106 -75 111
-3 3 -10 13 -16 22 -18 30 -150 223 -156 228 -3 3 -44 61 -90 130 -46 69 -87
127 -90 130 -3 3 -33 46 -67 95 -33 50 -97 142 -142 205 -44 63 -83 123 -87
133 -3 9 -8 17 -12 17 -4 0 -15 15 -26 33 -10 17 -21 34 -25 37 -3 3 -34 47
-68 98 l-62 94 32 41 c18 23 36 44 40 45 5 2 8 9 8 15 0 7 11 25 25 41 13 16
39 52 57 80 18 28 35 53 38 56 4 3 24 34 46 70 21 36 42 67 47 68 4 2 7 8 7
13 0 5 16 33 35 63 19 30 35 60 35 66 0 5 3 10 8 10 4 0 13 15 21 33 8 17 17
34 20 37 12 10 141 263 206 405 66 142 185 448 235 600 23 72 46 138 51 147 4
9 11 31 14 48 3 16 12 49 19 73 13 40 52 184 62 231 9 38 12 51 14 51 1 0 3 7
5 15 1 8 8 42 16 75 7 33 13 65 15 70 1 6 7 35 13 65 6 30 14 69 16 85 3 17
10 55 15 85 6 30 13 69 15 85 2 17 7 47 10 67 4 20 8 54 10 75 2 21 6 52 9 68
3 17 7 55 11 85 3 30 8 78 11 106 12 105 26 369 28 519 l1 110 -837 1 -838 2
-1 -57 c0 -31 -2 -72 -4 -91 -2 -19 -6 -71 -10 -115 -11 -141 -14 -176 -30
-280 -3 -22 -8 -57 -10 -79 -2 -21 -7 -46 -10 -55 -2 -9 -7 -35 -10 -57 -6
-52 -36 -199 -69 -334 -91 -385 -275 -847 -466 -1175 -29 -49 -61 -104 -71
-122 -31 -54 -94 -148 -101 -151 -5 -2 -8 -8 -8 -14 0 -5 -6 -16 -13 -23 -6
-8 -28 -37 -47 -65 -222 -324 -561 -688 -883 -947 -44 -36 -85 -69 -91 -75
-52 -45 -356 -248 -461 -309 -33 -19 -69 -39 -80 -46 -58 -34 -291 -148 -297
-146 -5 2 -8 0 -8 -5 0 -8 -35 -24 -92 -42 -21 -6 -38 -15 -38 -19 0 -4 -6 -8
-12 -8 -7 0 -29 -7 -48 -15 -79 -36 -356 -134 -403 -143 -9 -2 -21 -6 -26 -10
-18 -11 -351 -94 -380 -95 -9 0 -11 7 -6 23 3 12 8 31 10 42 2 11 6 30 9 43
11 44 15 58 36 147 11 50 32 135 46 190 14 55 26 109 28 120 2 11 13 58 24
105 12 47 23 97 26 110 11 55 15 70 19 78 3 4 8 23 11 42 3 19 8 44 10 55 3
11 26 106 51 210 25 105 54 228 65 275 11 47 36 153 55 235 45 189 43 179 45
185 1 3 2 8 1 12 0 3 6 30 13 60 13 50 100 416 111 466 7 29 8 35 44 186 17
71 34 143 37 160 7 42 23 57 30 28 4 -12 9 -22 13 -22 3 0 22 -25 41 -55 19
-30 38 -55 43 -55 4 0 7 -6 7 -13 0 -8 9 -22 20 -32 11 -10 20 -24 20 -31 0
-7 4 -14 8 -16 4 -1 28 -32 52 -68 25 -36 51 -71 58 -78 6 -7 12 -17 12 -22 0
-5 6 -15 13 -22 7 -7 36 -47 64 -88 86 -125 331 -474 342 -487 6 -7 11 -15 11
-17 0 -3 7 -14 14 -23 26 -31 126 -174 126 -179 0 -3 7 -12 15 -21 14 -13 25
-6 108 62 326 272 583 543 864 913 10 13 23 29 28 35 6 7 37 53 70 102 33 50
62 92 66 95 3 3 15 21 27 41 22 36 22 36 2 54 -11 10 -20 24 -20 31 0 7 -3 14
-8 16 -4 2 -50 64 -102 138 -52 74 -98 137 -102 138 -4 2 -8 8 -8 13 0 5 -19
36 -42 68 -52 71 -46 62 -174 247 -57 82 -107 154 -112 160 -5 5 -29 39 -53
75 -24 35 -46 66 -49 69 -3 3 -20 25 -36 50 -17 25 -54 79 -83 120 -50 72 -67
96 -196 280 -32 47 -63 87 -67 88 -4 2 -8 9 -8 16 0 7 -9 21 -20 31 -11 10
-20 22 -20 27 0 4 -12 21 -26 37 l-26 29 -1108 0 c-610 0 -1111 -2 -1114 -6z"/>
</g>
</svg>
